<?xml version="1.0" encoding="UTF-8" standalone="no"?>
<svg xmlns="http://www.w3.org/2000/svg" height="111px" width="512px" version="1.1" preserveAspectRatio="xMidYMid" xmlns:xlink="http://www.w3.org/1999/xlink" viewBox="0 0 512 111">
 <g fill="#77C159">
  <path d="m0.256 69.645c0-5.782 0.968-11.177 2.904-16.185 1.936-5.007 4.6464-9.37 8.131-13.087 3.485-3.717 7.654-6.634 12.507-8.751 4.853-2.116 10.17-3.175 15.952-3.175 4.389 0 8.377 0.646 11.965 1.936 3.588 1.291 7.06 3.408 10.415 6.35v-6.737h19.67v79.294h-19.67v-6.73c-3.355 2.94-6.827 5.06-10.415 6.35s-7.576 1.93-11.965 1.93c-5.782 0-11.099-1.06-15.952-3.17-4.853-2.12-9.022-5.04-12.507-8.752-3.4846-3.717-6.195-8.08-8.131-13.088-1.936-5.007-2.904-10.402-2.904-16.185zm42.05 22.69c1.549 0 3.175-0.167 4.879-0.503 1.703-0.336 3.42-0.904 5.149-1.704 1.73-0.8 3.42-1.871 5.073-3.214 1.652-1.342 3.226-2.994 4.723-4.956v-24.626c-1.497-1.961-3.071-3.6-4.723-4.917-1.653-1.316-3.343-2.388-5.073-3.214-1.729-0.826-3.446-1.407-5.149-1.742-1.704-0.336-3.33-0.503-4.879-0.504-3.046 0.001-5.899 0.568-8.557 1.704-2.659 1.136-4.969 2.724-6.931 4.763s-3.498 4.44-4.608 7.202-1.665 5.769-1.665 9.021c0 3.253 0.555 6.26 1.665 9.022s2.646 5.163 4.608 7.202 4.272 3.627 6.931 4.763c2.658 1.135 5.511 1.703 8.557 1.703z"/>
  <path d="m130.97 48.023c-9.32 0.068-17.42 6.563-17.42 16.202v45.065h-19.666v-44.523c0.11-18.568 16.186-36.069 36.806-36.32h0.55c20.61 0.251 36.69 17.752 36.8 36.32v44.523h-19.67v-45.065c0-9.639-8.09-16.134-17.41-16.202"/>
  <path d="m177.35 69.645c0-5.782 0.97-11.177 2.91-16.185 1.93-5.007 4.64-9.37 8.13-13.087 3.48-3.717 7.65-6.634 12.51-8.751 4.85-2.116 10.17-3.175 15.95-3.175 4.39 0 8.39 0.646 12 1.936 3.62 1.291 7.07 3.382 10.38 6.273v-30.434l19.67 0.0001v103.07h-19.67v-6.66c-3.31 2.95-6.76 5.05-10.38 6.32-3.61 1.26-7.61 1.89-12 1.89-5.78 0-11.1-1.06-15.95-3.17-4.86-2.12-9.03-5.04-12.51-8.752-3.49-3.717-6.2-8.08-8.13-13.088-1.94-5.007-2.91-10.402-2.91-16.185zm42.05 22.69c1.55 0 3.18-0.167 4.88-0.503 1.71-0.336 3.42-0.904 5.15-1.704s3.42-1.871 5.07-3.214c1.66-1.342 3.23-2.994 4.73-4.956v-24.626c-1.5-1.961-3.07-3.6-4.73-4.917-1.65-1.316-3.34-2.388-5.07-3.214s-3.44-1.407-5.15-1.742c-1.7-0.336-3.33-0.503-4.88-0.504-3.04 0.001-5.89 0.568-8.55 1.704s-4.97 2.724-6.93 4.763c-1.97 2.039-3.5 4.44-4.61 7.202s-1.67 5.769-1.67 9.021c0 3.253 0.56 6.26 1.67 9.022s2.64 5.163 4.61 7.202c1.96 2.039 4.27 3.627 6.93 4.763 2.66 1.135 5.51 1.703 8.55 1.703z"/>
  <path d="m351.01 92.335c2.94 0 5.72-0.555 8.33-1.665 2.6-1.11 4.87-2.671 6.81-4.685 1.94-2.013 3.46-4.401 4.57-7.163s1.66-5.821 1.66-9.177c0-3.304-0.56-6.337-1.7-9.099-1.13-2.762-2.68-5.15-4.65-7.163-1.96-2.013-4.23-3.588-6.81-4.724s-5.32-1.703-8.21-1.704c-2.94 0.001-5.72 0.568-8.32 1.704-2.61 1.136-4.88 2.711-6.82 4.724-1.93 2.013-3.47 4.401-4.61 7.163-1.13 2.762-1.7 5.795-1.7 9.099 0 3.356 0.56 6.415 1.67 9.177s2.63 5.15 4.56 7.163c1.94 2.014 4.21 3.575 6.82 4.685s5.41 1.665 8.4 1.665zm0 18.505c-5.73 0-11.12-1.03-16.18-3.09-5.06-2.07-9.49-4.95-13.28-8.639-3.8-3.691-6.79-8.054-8.99-13.087-2.19-5.034-3.29-10.493-3.29-16.379 0-5.73 1.1-11.099 3.29-16.107 2.2-5.008 5.18-9.37 8.95-13.087 3.77-3.718 8.19-6.647 13.28-8.79 5.08-2.142 10.49-3.214 16.22-3.214s11.13 1.072 16.19 3.214c5.06 2.143 9.47 5.072 13.24 8.79 3.77 3.717 6.75 8.079 8.94 13.087 2.2 5.008 3.29 10.377 3.29 16.107 0 5.886-1.09 11.345-3.29 16.379-2.19 5.033-5.19 9.396-8.98 13.087-3.79 3.689-8.21 6.569-13.24 8.639-5.04 2.06-10.42 3.09-16.15 3.09z"/>
  <path d="m411.32 23.787c-1.59 0-3.1-0.311-4.52-0.934-1.42-0.622-2.66-1.469-3.73-2.54-1.07-1.07-1.92-2.315-2.54-3.735-0.62-1.419-0.94-2.926-0.94-4.519 0-1.594 0.32-3.1127 0.94-4.557 0.62-1.4441 1.47-2.7016 2.54-3.7724 1.07-1.0706 2.31-1.9172 3.73-2.5398 1.42-0.62244 2.93-0.93368 4.52-0.9338 1.6 0.00012 3.11 0.31124 4.56 0.9338 1.44 0.6226 2.7 1.4692 3.77 2.5398 1.07 1.0708 1.92 2.3283 2.54 3.7724 0.62 1.4443 0.93 2.963 0.93 4.557 0 1.593-0.31 3.1-0.93 4.519-0.62 1.42-1.47 2.665-2.54 3.735-1.07 1.071-2.33 1.918-3.77 2.54-1.45 0.623-2.96 0.934-4.56 0.934z"/>
  <path d="m401.49 29.996h19.67v79.294h-19.67v-79.294z"/>
  <path d="m430.2 69.645c0-5.782 0.97-11.177 2.9-16.185 1.94-5.007 4.65-9.37 8.14-13.087 3.48-3.717 7.65-6.634 12.5-8.751 4.85-2.116 10.17-3.175 15.95-3.175 4.39 0 8.39 0.646 12.01 1.936 3.61 1.291 7.07 3.382 10.37 6.273v-30.434l19.67 0.0001v103.07h-19.67v-6.66c-3.3 2.95-6.76 5.05-10.37 6.32-3.62 1.26-7.62 1.89-12.01 1.89-5.78 0-11.1-1.06-15.95-3.17-4.85-2.12-9.02-5.04-12.5-8.752-3.49-3.717-6.2-8.08-8.14-13.088-1.93-5.007-2.9-10.402-2.9-16.185zm42.05 22.69c1.55 0 3.17-0.167 4.88-0.503 1.7-0.336 3.42-0.904 5.15-1.704s3.42-1.871 5.07-3.214c1.65-1.342 3.23-2.994 4.72-4.956v-24.626c-1.49-1.961-3.07-3.6-4.72-4.917-1.65-1.316-3.34-2.388-5.07-3.214s-3.45-1.407-5.15-1.742c-1.71-0.336-3.33-0.503-4.88-0.504-3.05 0.001-5.9 0.568-8.56 1.704s-4.97 2.724-6.93 4.763-3.5 4.44-4.61 7.202-1.66 5.769-1.66 9.021c0 3.253 0.55 6.26 1.66 9.022s2.65 5.163 4.61 7.202 4.27 3.627 6.93 4.763c2.66 1.135 5.51 1.703 8.56 1.703z"/>
  <path d="m307.4 47.785c-13.18 0-19 6.801-19 16.44v45.065h-19.67v-44.523c0.11-18.568 10.84-36.822 38.67-36.822"/>
 </g>
</svg>
