<?xml version="1.0" encoding="UTF-8" standalone="no"?>
<svg xmlns="http://www.w3.org/2000/svg" height="100px" width="256px" version="1.1" preserveAspectRatio="xMidYMid" xmlns:xlink="http://www.w3.org/1999/xlink" viewBox="0 0 256 100">
 <g fill-rule="evenodd">
  <path d="m33.326 94.999l-14.986-5.376v-21.966l14.986 5.106v22.236" fill="#f90"/>
  <path d="m36.075 94.999l14.986-5.376v-21.966l-14.986 5.106v22.236" fill="#f90"/>
  <path d="m19.88 66.014l15.167-4.269 14.064 4.534-14.064 4.775-15.167-5.04" fill="#f90"/>
  <path d="m15.484 64.313l-14.986-5.376-0.00029-21.967 14.986 5.106v22.237" fill="#f90"/>
  <path d="m18.233 64.313l14.987-5.376v-21.967l-14.987 5.106v22.237" fill="#f90"/>
  <path d="m2.0376 35.326l15.168-4.269 14.064 4.535-14.064 4.775-15.168-5.041" fill="#f90"/>
  <path d="m50.453 64.313l-14.987-5.376v-21.967l14.987 5.106v22.237" fill="#f90"/>
  <path d="m53.202 64.313l14.987-5.376v-21.967l-14.987 5.106v22.237" fill="#f90"/>
  <path d="m37.008 35.326l15.167-4.269 14.063 4.535-14.063 4.775-15.167-5.041" fill="#f90"/>
  <path d="m68.295 33.624l-14.987-5.374v-21.967l14.987 5.105v22.236" fill="#f90"/>
  <path d="m71.044 33.624l14.987-5.374v-21.967l-14.987 5.105v22.236" fill="#f90"/>
  <path d="m54.849 4.6392l15.168-4.2695 14.063 4.5346-14.063 4.775-15.168-5.0401" fill="#f90"/>
  <path d="m103.26 33.624l-14.982-5.374v-21.967l14.982 5.105v22.236" fill="#f90"/>
  <path d="m106.01 33.624l14.99-5.374v-21.967l-14.99 5.105v22.236" fill="#f90"/>
  <path d="m89.818 4.6392l15.172-4.2695 14.06 4.5346-14.06 4.775-15.172-5.0401" fill="#f90"/>
  <path d="m95.641 80.69l-5.034 17.489h-2.188l-3.92-12.99-3.593 12.99h-2.231l-5.232-17.489h2.705l3.811 13.033 3.628-13.033h1.996l3.944 13.075 3.917-13.075h2.197z"/>
  <path stroke="#000" d="m95.641 80.69l-5.034 17.489h-2.188l-3.92-12.99-3.593 12.99h-2.231l-5.232-17.489h2.705l3.811 13.033 3.628-13.033h1.996l3.944 13.075 3.917-13.075h2.197z"/>
  <path d="m109.57 92.962l2.53 0.52c-0.46 1.495-1.36 2.734-2.69 3.713-1.34 0.98-2.91 1.47-4.72 1.47-2.39 0-4.32-0.84-5.795-2.522-1.475-1.681-2.212-3.886-2.212-6.613 0-2.785 0.767-5.035 2.299-6.751 1.528-1.716 3.458-2.574 5.778-2.574 2.28 0 4.11 0.79 5.5 2.37 1.39 1.581 2.1 3.944 2.14 7.092h-12.696c0 2.645 0.556 4.428 1.656 5.353 1.11 0.923 2.28 1.385 3.51 1.385 2.22 0 3.79-1.148 4.7-3.443zm-0.15-5.322c-0.02-0.981-0.18-1.852-0.48-2.614-0.3-0.761-0.81-1.41-1.53-1.947-0.71-0.536-1.57-0.804-2.57-0.804-1.35 0-2.49 0.484-3.43 1.454-0.94 0.969-1.464 2.272-1.58 3.911h9.59z"/>
  <path stroke="#000" d="m109.57 92.962l2.53 0.52c-0.46 1.495-1.36 2.734-2.69 3.713-1.34 0.98-2.91 1.47-4.72 1.47-2.39 0-4.32-0.84-5.795-2.522-1.475-1.681-2.212-3.886-2.212-6.613 0-2.785 0.767-5.035 2.299-6.751 1.528-1.716 3.458-2.574 5.778-2.574 2.28 0 4.11 0.79 5.5 2.37 1.39 1.581 2.1 3.944 2.14 7.092h-12.696c0 2.645 0.556 4.428 1.656 5.353 1.11 0.923 2.28 1.385 3.51 1.385 2.22 0 3.79-1.148 4.7-3.443zm-0.15-5.322c-0.02-0.981-0.18-1.852-0.48-2.614-0.3-0.761-0.81-1.41-1.53-1.947-0.71-0.536-1.57-0.804-2.57-0.804-1.35 0-2.49 0.484-3.43 1.454-0.94 0.969-1.464 2.272-1.58 3.911h9.59z"/>
  <path d="m117.29 98.179h-1.31v-23.613h2.72v9.039c1.25-2.267 2.96-3.4 5.15-3.4 2 0 3.68 0.791 5.03 2.375 1.35 1.583 2.03 3.882 2.03 6.898 0 2.6-0.67 4.781-2 6.543-1.33 1.763-3.06 2.644-5.19 2.644-2.37 0-4.19-1.127-5.46-3.38l-0.97 2.894zm1.41-6.857c0.13 1.796 0.68 3.098 1.65 3.909 0.98 0.811 2.01 1.217 3.09 1.217 1.38 0 2.5-0.601 3.35-1.803 0.84-1.201 1.27-2.847 1.27-4.938 0-2.251-0.41-4.022-1.23-5.31s-1.95-1.933-3.41-1.933c-1.14 0-2.17 0.459-3.08 1.375-0.92 0.918-1.47 2.103-1.64 3.556v3.927z"/>
  <path stroke="#000" d="m117.29 98.179h-1.31v-23.613h2.72v9.039c1.25-2.267 2.96-3.4 5.15-3.4 2 0 3.68 0.791 5.03 2.375 1.35 1.583 2.03 3.882 2.03 6.898 0 2.6-0.67 4.781-2 6.543-1.33 1.763-3.06 2.644-5.19 2.644-2.37 0-4.19-1.127-5.46-3.38l-0.97 2.894zm1.41-6.857c0.13 1.796 0.68 3.098 1.65 3.909 0.98 0.811 2.01 1.217 3.09 1.217 1.38 0 2.5-0.601 3.35-1.803 0.84-1.201 1.27-2.847 1.27-4.938 0-2.251-0.41-4.022-1.23-5.31s-1.95-1.933-3.41-1.933c-1.14 0-2.17 0.459-3.08 1.375-0.92 0.918-1.47 2.103-1.64 3.556v3.927z"/>
  <path d="m137.85 93.647l2.6-0.537c0.58 2.197 2.4 3.295 5.47 3.295 1.13 0 2.09-0.253 2.88-0.76 0.78-0.506 1.18-1.22 1.18-2.141 0-1.369-1-2.239-3-2.607l-3.68-0.701c-1.45-0.277-2.6-0.82-3.45-1.628s-1.28-1.876-1.28-3.204c0-1.465 0.58-2.692 1.75-3.679 1.16-0.987 2.73-1.48 4.7-1.48 3.8 0 6.14 1.483 7.03 4.448l-2.5 0.536c-0.71-1.816-2.18-2.725-4.4-2.725-1.11 0-2.02 0.228-2.73 0.681-0.71 0.454-1.06 1.088-1.06 1.904 0 1.285 0.91 2.094 2.72 2.428l3.4 0.627c3.57 0.646 5.35 2.376 5.35 5.185 0 1.606-0.67 2.905-1.99 3.892-1.33 0.99-3.1 1.484-5.3 1.484-4.14 0-6.71-1.673-7.69-5.018z"/>
  <path stroke="#000" d="m137.85 93.647l2.6-0.537c0.58 2.197 2.4 3.295 5.47 3.295 1.13 0 2.09-0.253 2.88-0.76 0.78-0.506 1.18-1.22 1.18-2.141 0-1.369-1-2.239-3-2.607l-3.68-0.701c-1.45-0.277-2.6-0.82-3.45-1.628s-1.28-1.876-1.28-3.204c0-1.465 0.58-2.692 1.75-3.679 1.16-0.987 2.73-1.48 4.7-1.48 3.8 0 6.14 1.483 7.03 4.448l-2.5 0.536c-0.71-1.816-2.18-2.725-4.4-2.725-1.11 0-2.02 0.228-2.73 0.681-0.71 0.454-1.06 1.088-1.06 1.904 0 1.285 0.91 2.094 2.72 2.428l3.4 0.627c3.57 0.646 5.35 2.376 5.35 5.185 0 1.606-0.67 2.905-1.99 3.892-1.33 0.99-3.1 1.484-5.3 1.484-4.14 0-6.71-1.673-7.69-5.018z"/>
  <path d="m167.32 92.962l2.53 0.52c-0.46 1.495-1.36 2.734-2.69 3.713-1.34 0.98-2.91 1.47-4.72 1.47-2.39 0-4.32-0.84-5.79-2.522-1.48-1.681-2.22-3.886-2.22-6.613 0-2.785 0.77-5.035 2.3-6.751 1.54-1.716 3.46-2.574 5.78-2.574 2.28 0 4.11 0.79 5.5 2.37 1.39 1.581 2.1 3.944 2.14 7.092h-12.7c0 2.645 0.56 4.428 1.66 5.353 1.11 0.923 2.28 1.385 3.51 1.385 2.22 0 3.79-1.148 4.7-3.443zm-0.15-5.322c-0.02-0.981-0.19-1.852-0.48-2.614-0.3-0.761-0.81-1.41-1.52-1.947-0.72-0.536-1.58-0.804-2.58-0.804-1.35 0-2.49 0.484-3.43 1.454-0.94 0.969-1.46 2.272-1.58 3.911h9.59z"/>
  <path stroke="#000" d="m167.32 92.962l2.53 0.52c-0.46 1.495-1.36 2.734-2.69 3.713-1.34 0.98-2.91 1.47-4.72 1.47-2.39 0-4.32-0.84-5.79-2.522-1.48-1.681-2.22-3.886-2.22-6.613 0-2.785 0.77-5.035 2.3-6.751 1.54-1.716 3.46-2.574 5.78-2.574 2.28 0 4.11 0.79 5.5 2.37 1.39 1.581 2.1 3.944 2.14 7.092h-12.7c0 2.645 0.56 4.428 1.66 5.353 1.11 0.923 2.28 1.385 3.51 1.385 2.22 0 3.79-1.148 4.7-3.443zm-0.15-5.322c-0.02-0.981-0.19-1.852-0.48-2.614-0.3-0.761-0.81-1.41-1.52-1.947-0.72-0.536-1.58-0.804-2.58-0.804-1.35 0-2.49 0.484-3.43 1.454-0.94 0.969-1.46 2.272-1.58 3.911h9.59z"/>
  <path d="m175.8 98.179h-2.72v-17.489h2.38v4.077c0.85-1.91 1.69-3.147 2.54-3.712 0.85-0.567 1.71-0.85 2.6-0.85 0.28 0 0.64 0.021 1.07 0.063v2.598h-0.55c-1.5 0-2.74 0.557-3.73 1.669s-1.52 2.573-1.59 4.385v9.259z"/>
  <path stroke="#000" d="m175.8 98.179h-2.72v-17.489h2.38v4.077c0.85-1.91 1.69-3.147 2.54-3.712 0.85-0.567 1.71-0.85 2.6-0.85 0.28 0 0.64 0.021 1.07 0.063v2.598h-0.55c-1.5 0-2.74 0.557-3.73 1.669s-1.52 2.573-1.59 4.385v9.259z"/>
  <path d="m198.6 80.69l-6.04 17.489h-2.83l-6.24-17.489h3.02l4.85 14.215 4.82-14.215h2.42z"/>
  <path stroke="#000" d="m198.6 80.69l-6.04 17.489h-2.83l-6.24-17.489h3.02l4.85 14.215 4.82-14.215h2.42z"/>
  <path d="m200.77 74.566h2.92v3.02h-2.92v-3.02zm0.13 6.124h2.73v17.489h-2.73v-17.489z"/>
  <path stroke="#000" d="m200.77 74.566h2.92v3.02h-2.92v-3.02zm0.13 6.124h2.73v17.489h-2.73v-17.489z"/>
  <path d="m217.86 92.054l2.45 0.432c-0.35 1.933-1.11 3.446-2.3 4.539s-2.67 1.64-4.45 1.64c-2.41 0-4.25-0.891-5.51-2.67s-1.89-3.951-1.89-6.517c0-2.658 0.66-4.867 2-6.63 1.33-1.762 3.14-2.643 5.44-2.643 1.9 0 3.42 0.569 4.57 1.709 1.15 1.138 1.86 2.61 2.14 4.413l-2.45 0.467c-0.46-2.885-1.86-4.33-4.18-4.33-1.5 0-2.65 0.637-3.46 1.911-0.81 1.275-1.21 2.927-1.21 4.956 0 2.238 0.4 3.975 1.2 5.215 0.8 1.239 1.93 1.859 3.38 1.859 2.25 0 3.67-1.45 4.27-4.351z"/>
  <path stroke="#000" d="m217.86 92.054l2.45 0.432c-0.35 1.933-1.11 3.446-2.3 4.539s-2.67 1.64-4.45 1.64c-2.41 0-4.25-0.891-5.51-2.67s-1.89-3.951-1.89-6.517c0-2.658 0.66-4.867 2-6.63 1.33-1.762 3.14-2.643 5.44-2.643 1.9 0 3.42 0.569 4.57 1.709 1.15 1.138 1.86 2.61 2.14 4.413l-2.45 0.467c-0.46-2.885-1.86-4.33-4.18-4.33-1.5 0-2.65 0.637-3.46 1.911-0.81 1.275-1.21 2.927-1.21 4.956 0 2.238 0.4 3.975 1.2 5.215 0.8 1.239 1.93 1.859 3.38 1.859 2.25 0 3.67-1.45 4.27-4.351z"/>
  <path d="m235.67 92.962l2.54 0.52c-0.46 1.495-1.36 2.734-2.7 3.713-1.33 0.98-2.91 1.47-4.72 1.47-2.38 0-4.31-0.84-5.79-2.522-1.47-1.681-2.21-3.886-2.21-6.613 0-2.785 0.77-5.035 2.3-6.751s3.46-2.574 5.77-2.574c2.28 0 4.12 0.79 5.51 2.37 1.39 1.581 2.1 3.944 2.13 7.092h-12.69c0 2.645 0.55 4.428 1.66 5.353 1.1 0.923 2.27 1.385 3.51 1.385 2.22 0 3.78-1.148 4.69-3.443zm-0.14-5.322c-0.03-0.981-0.19-1.852-0.49-2.614-0.3-0.761-0.8-1.41-1.52-1.947-0.71-0.536-1.57-0.804-2.57-0.804-1.35 0-2.49 0.484-3.43 1.454-0.94 0.969-1.47 2.272-1.58 3.911h9.59z"/>
  <path stroke="#000" d="m235.67 92.962l2.54 0.52c-0.46 1.495-1.36 2.734-2.7 3.713-1.33 0.98-2.91 1.47-4.72 1.47-2.38 0-4.31-0.84-5.79-2.522-1.47-1.681-2.21-3.886-2.21-6.613 0-2.785 0.77-5.035 2.3-6.751s3.46-2.574 5.77-2.574c2.28 0 4.12 0.79 5.51 2.37 1.39 1.581 2.1 3.944 2.13 7.092h-12.69c0 2.645 0.55 4.428 1.66 5.353 1.1 0.923 2.27 1.385 3.51 1.385 2.22 0 3.78-1.148 4.69-3.443zm-0.14-5.322c-0.03-0.981-0.19-1.852-0.49-2.614-0.3-0.761-0.8-1.41-1.52-1.947-0.71-0.536-1.57-0.804-2.57-0.804-1.35 0-2.49 0.484-3.43 1.454-0.94 0.969-1.47 2.272-1.58 3.911h9.59z"/>
  <path d="m240.04 93.647l2.6-0.537c0.58 2.197 2.4 3.295 5.47 3.295 1.14 0 2.09-0.253 2.88-0.76 0.78-0.506 1.18-1.22 1.18-2.141 0-1.369-1-2.239-3-2.607l-3.69-0.701c-1.44-0.277-2.59-0.82-3.44-1.628s-1.28-1.876-1.28-3.204c0-1.465 0.58-2.692 1.75-3.679 1.16-0.987 2.73-1.48 4.7-1.48 3.8 0 6.14 1.483 7.03 4.448l-2.5 0.536c-0.71-1.816-2.18-2.725-4.4-2.725-1.11 0-2.02 0.228-2.73 0.681-0.71 0.454-1.06 1.088-1.06 1.904 0 1.285 0.9 2.094 2.72 2.428l3.4 0.627c3.57 0.646 5.35 2.376 5.35 5.185 0 1.606-0.67 2.905-1.99 3.892-1.33 0.99-3.1 1.484-5.3 1.484-4.14 0-6.71-1.673-7.69-5.018z"/>
  <path stroke="#000" d="m240.04 93.647l2.6-0.537c0.58 2.197 2.4 3.295 5.47 3.295 1.14 0 2.09-0.253 2.88-0.76 0.78-0.506 1.18-1.22 1.18-2.141 0-1.369-1-2.239-3-2.607l-3.69-0.701c-1.44-0.277-2.59-0.82-3.44-1.628s-1.28-1.876-1.28-3.204c0-1.465 0.58-2.692 1.75-3.679 1.16-0.987 2.73-1.48 4.7-1.48 3.8 0 6.14 1.483 7.03 4.448l-2.5 0.536c-0.71-1.816-2.18-2.725-4.4-2.725-1.11 0-2.02 0.228-2.73 0.681-0.71 0.454-1.06 1.088-1.06 1.904 0 1.285 0.9 2.094 2.72 2.428l3.4 0.627c3.57 0.646 5.35 2.376 5.35 5.185 0 1.606-0.67 2.905-1.99 3.892-1.33 0.99-3.1 1.484-5.3 1.484-4.14 0-6.71-1.673-7.69-5.018z"/>
  <path d="m178.63 43.313v-4.201c0-0.639 0.48-1.065 1.07-1.064l18.82-0.002c0.61 0 1.09 0.438 1.09 1.061v3.603c-0.01 0.604-0.51 1.393-1.42 2.644l-9.75 13.925c3.62-0.085 7.45 0.457 10.74 2.306 0.74 0.416 0.94 1.034 1 1.64v4.482c0 0.618-0.68 1.332-1.39 0.961-5.8-3.036-13.49-3.369-19.89 0.036-0.66 0.349-1.34-0.355-1.34-0.973v-4.261c0-0.682 0.01-1.848 0.7-2.888l11.3-16.21-9.84-0.001c-0.6 0-1.09-0.429-1.09-1.058"/>
  <path d="m111.25 69.551h-5.73c-0.54-0.036-0.98-0.446-1.02-0.968v-29.399c0-0.588 0.5-1.059 1.11-1.059l5.33-0.001c0.56 0.028 1.01 0.451 1.04 0.987v3.839h0.11c1.39-3.712 4.01-5.445 7.54-5.445 3.58 0 5.83 1.733 7.43 5.445 1.39-3.712 4.55-5.445 7.91-5.445 2.41 0 5.03 0.99 6.63 3.217 1.82 2.474 1.45 6.063 1.45 9.218l-0.01 18.552c0 0.588-0.49 1.059-1.1 1.059h-5.72c-0.58-0.037-1.03-0.493-1.03-1.056v-15.586c0-1.237 0.11-4.33-0.16-5.505-0.43-1.98-1.71-2.537-3.37-2.537-1.39 0-2.83 0.928-3.42 2.413s-0.54 3.959-0.54 5.629v15.583c0 0.588-0.49 1.059-1.1 1.059h-5.72c-0.58-0.037-1.03-0.493-1.03-1.056l-0.01-15.586c0-3.278 0.54-8.104-3.53-8.104-4.11 0-3.95 4.702-3.95 8.104l-0.01 15.583c0 0.588-0.49 1.059-1.1 1.059"/>
  <path d="m213.44 37.505c8.43 0 13 7.3 13 16.58 0 8.97-5.04 16.085-13 16.085-8.27 0-12.78-7.301-12.78-16.394 0-9.157 4.56-16.271 12.78-16.271zm0.05 6.758c-4.19 0-4.45 5.753-4.45 9.341s-0.05 10.503 4.4 10.503c4.4 0 4.62-5.43 4.62-9.203 0-2.475-0.11-5.445-0.85-7.795-0.64-2.042-1.91-2.846-3.72-2.846z"/>
  <path d="m238.64 69.551h-5.7c-0.58-0.037-1.03-0.493-1.03-1.056l-0.01-29.41c0.05-0.538 0.52-0.96 1.1-0.96l5.31-0.001c0.5 0.025 0.92 0.367 1.02 0.823v4.497h0.11c1.6-4.021 3.85-5.939 7.8-5.939 2.57 0 5.09 0.928 6.69 3.465 1.5 2.351 1.5 6.31 1.5 9.156v18.498c-0.07 0.522-0.54 0.927-1.1 0.927h-5.74c-0.53-0.035-0.96-0.424-1.02-0.927v-15.962c0-3.217 0.37-7.919-3.59-7.919-1.39 0-2.67 0.928-3.31 2.351-0.8 1.794-0.91 3.588-0.91 5.568v15.83c-0.01 0.588-0.51 1.059-1.12 1.059"/>
  <path d="m164.27 55.511c0 2.233 0.05 4.092-1.07 6.076-0.91 1.613-2.36 2.604-3.97 2.604-2.19 0-3.48-1.674-3.48-4.154 0-4.878 4.38-5.766 8.52-5.766v1.24zm5.78 13.966c-0.38 0.34-0.93 0.363-1.36 0.134-1.9-1.582-2.24-2.313-3.28-3.818-3.15 3.204-5.37 4.164-9.44 4.164-4.83 0-8.58-2.976-8.58-8.928 0-4.65 2.52-7.812 6.11-9.362 3.11-1.364 7.45-1.612 10.77-1.984v-0.744c0-1.364 0.11-2.976-0.7-4.154-0.69-1.054-2.03-1.488-3.21-1.488-2.19 0-4.13 1.12-4.6 3.44-0.1 0.516-0.48 1.026-1 1.052l-5.55-0.6c-0.47-0.106-0.99-0.482-0.86-1.197 1.28-6.736 7.36-8.771 12.81-8.771 2.79 0 6.43 0.744 8.63 2.852 2.79 2.604 2.52 6.076 2.52 9.858v8.924c0 2.684 1.11 3.862 2.16 5.309 0.37 0.521 0.45 1.141-0.02 1.521-1.17 0.981-3.25 2.787-4.39 3.805l-0.01-0.013z"/>
  <path d="m89.83 55.511c0 2.233 0.054 4.092-1.071 6.076-0.911 1.613-2.358 2.604-3.966 2.604-2.197 0-3.482-1.674-3.482-4.154 0-4.878 4.376-5.766 8.519-5.766v1.24zm5.776 13.966c-0.38 0.34-0.927 0.363-1.354 0.134-1.903-1.582-2.244-2.313-3.284-3.818-3.144 3.204-5.371 4.164-9.443 4.164-4.823 0-8.574-2.976-8.574-8.928 0-4.65 2.518-7.812 6.109-9.362 3.108-1.364 7.449-1.612 10.77-1.984v-0.744c0-1.364 0.107-2.976-0.696-4.154-0.697-1.054-2.037-1.488-3.215-1.488-2.185 0-4.128 1.12-4.605 3.44-0.099 0.516-0.475 1.026-0.995 1.052l-5.551-0.6c-0.469-0.106-0.991-0.482-0.855-1.197 1.276-6.736 7.358-8.771 12.809-8.771 2.787 0 6.43 0.744 8.628 2.852 2.786 2.604 2.518 6.076 2.518 9.858v8.924c0 2.684 1.115 3.862 2.162 5.309 0.37 0.521 0.45 1.141-0.02 1.521-1.169 0.981-3.248 2.787-4.391 3.805l-0.013-0.013z"/>
 </g>
</svg>
