<?xml version="1.0" encoding="UTF-8" standalone="no"?>
<svg xmlns="http://www.w3.org/2000/svg" height="225px" width="256px" version="1.1" preserveAspectRatio="xMidYMid" xmlns:xlink="http://www.w3.org/1999/xlink" viewBox="0 0 256 225">
 <path d="m250.86 110.13c-13.12-12.614-78.76-20.488-99.46-22.779 1-2.369 1.85-4.82 2.56-7.343 2.82-1.236 5.87-2.386 9.02-3.347 0.38 1.133 2.19 5.473 3.22 7.532 41.65 1.149 43.78-30.947 45.48-39.739 1.65-8.598 1.57-16.905 15.85-32.092-21.28-6.2014-51.88 9.612-62.13 33.148-3.85-1.444-7.71-2.51-11.53-3.169-2.74-11.038-16.99-41.789-54.378-41.789-47.342-0.00028-98.94 39.056-98.94 105.17-0.00028 55.58 37.943 104.28 59.381 104.28 9.362 0 17.415-7.01 19.306-13.29 1.585 4.31 6.449 17.7 8.046 21.11 2.361 5.04 13.275 9.41 18.055 4.17 6.15 3.42 17.42 5.47 23.56-3.63 11.83 2.5 22.29-4.55 22.52-12.97 5.81-0.31 8.66-8.46 7.39-14.95-0.94-4.78-10.92-21.93-14.81-27.85 7.7 6.27 27.23 8.04 29.6 0 12.43 9.76 31.8 4.63 33.34-3.3 15.1 3.92 32.42-4.69 29.57-15.13 24.27-1.68 21.16-27.49 14.35-34.03z" fill="#543729"/>
 <path d="m183.31 55.076c5.23-10.368 11.79-21.688 20.09-28.691-9.13 3.678-18.14 14.676-23.47 26.43-2.72-1.726-5.48-3.266-8.26-4.613 7.44-15.866 24.71-29.117 43.74-30.152-12.75 11.563-8.22 35.596-18.7 48.319-3-3.013-9.89-8.827-13.4-11.293zm-8.24 16.882c0.01-0.397 0.15-3.457 0.43-4.854-0.73-0.172-5.27-1.061-7.64-1.005-0.17 2.975 1.25 8.037 2.65 11.084 9.69-0.203 16.69-3.103 20.8-5.769-3.5-1.635-9.48-3.087-14.03-3.956-0.51 1.05-1.76 3.725-2.21 4.5z" fill="#00ACEE"/>
 <path d="m139.08 153.98l0.01 0.05c-1.23-2.64-2.53-5.85-4.09-10.05 6.06 8.83 25.06 4.28 24.07-3.63 9.3 7 28.44-1.17 24.09-10.98 9.32 4.34 19.95-4.39 17.56-8.2 15.89 3.06 31.11 6.12 35.88 7.34-3.17 5.18-10.4 8.83-21.3 6.29 5.89 8.02-5.54 17.64-21.46 12.34 3.5 7.88-10.67 14.97-26.79 6.76 0.21 7.88-19.99 8.78-27.97 0.08zm31.51-39.82c18.43 1.42 48.91 4.17 67.79 6.81-1.2-6.14-4.45-7.9-14.7-10.65-11.02 1.18-38.97 3.92-53.09 3.84z" fill="#2BAF2B"/>
 <path d="m159.07 140.35c9.3 7 28.44-1.17 24.09-10.98 9.32 4.34 19.95-4.39 17.56-8.2-18.77-3.62-38.48-7.25-42.95-7.89 2.71 0.15 7.21 0.45 12.82 0.88 14.12 0.08 42.07-2.66 53.09-3.84-17.84-4.52-54.26-11.123-79.42-12.75-1.16 1.704-3.31 4.59-7.04 7.66-11.01 23.29-30.95 38.77-53.01 38.77-6.43 0-13.624-1.09-21.687-3.66-5.028 5.38-26.468 9.47-43.864 0.93 13.799 32.31 45.799 53.88 81.22 53.88 29.831 0 43.061-30.47 40.161-38.53-0.7-1.95-3.48-8.44-5.04-12.64 6.06 8.83 25.06 4.28 24.07-3.63z" fill="#FFCC2F"/>
 <path d="m140.99 79.039c2.63-1.433 11.74-6.95 20.41-9.024-0.14-0.96-0.24-1.929-0.3-2.903-5.7 1.362-16.42 5.961-22.57-0.376 12.97 3.914 19.45-3.487 28.98-3.487 5.68 0 13.78 1.586 20.17 4.095-5.13-4.748-21.99-19.076-42.85-19.126-4.66 5.648-9.7 17.883-3.84 30.821z" fill="#CECECE"/>
 <path d="m62.523 140.34c8.063 2.57 15.257 3.66 21.687 3.66 22.06 0 42-15.48 53.01-38.77-8.14 6.8-22.29 12.61-44.381 12.61 19.681-4.46 36.621-14.27 45.241-28.601-6.06-9.642-12.63-30.973 4.01-47.836-2.56-8.223-15.02-29.93-42.598-29.93-48.13 0-88.018 40.274-88.018 94.247 0 12.78 2.579 24.76 7.186 35.55 17.395 8.54 38.835 4.45 43.863-0.93z" fill="#EF5734"/>
 <path d="m76.963 58.156c0 12.277 9.953 22.23 22.23 22.23s22.227-9.953 22.227-22.23c0-12.278-9.95-22.231-22.227-22.231s-22.23 9.953-22.23 22.231z" fill="#FFCC2F"/>
 <path d="m85.884 58.156c0 7.35 5.959 13.309 13.309 13.309 7.347 0 13.307-5.959 13.307-13.309 0-7.351-5.96-13.31-13.307-13.31-7.35 0-13.309 5.959-13.309 13.31z" fill="#543729"/>
 <ellipse cy="52.25" cx="99.193" rx="7.7556" ry="4.8221" fill="#fff"/>
</svg>
