<?xml version="1.0" encoding="UTF-8" standalone="no"?>
<svg xmlns="http://www.w3.org/2000/svg" height="387px" width="256px" version="1.1" preserveAspectRatio="xMidYMid" xmlns:xlink="http://www.w3.org/1999/xlink" viewBox="0 0 256 387">
 <path d="m146.44 115.04v266.99c0 2.84 2.83 4.61 5.32 3.19l102.47-55.67c1.06-0.71 1.77-1.77 1.77-3.19v-151.4c0-1.42-0.71-2.48-1.77-3.19l-102.12-59.92c-2.48-1.42-5.67 0.35-5.67 3.19zm-14.54 268.05v-379.39c0-2.4787-2.48-4.2516-4.96-3.5424l-124.46 46.094c-1.4163 0.709-2.48 1.773-2.48 3.545l7.1054e-15 288.62c0 1.42 1.0637 2.83 2.482 3.54l124.46 44.68c2.48 0.71 4.96-1.06 4.96-3.55z" fill="#F14646"/>
</svg>
