<?xml version="1.0" encoding="UTF-8" standalone="no"?>
<svg xmlns="http://www.w3.org/2000/svg" height="149px" width="512px" version="1.1" preserveAspectRatio="xMidYMid" xmlns:xlink="http://www.w3.org/1999/xlink" viewBox="0 0 512 149">
 <path d="m3.3322 115.63v-56.982h71.144v-3.333h-71.144l0.0002-51.983 75.642 0.0002v-3.3322h-78.974l-3.5527e-15 118.96h79.641v-3.33h-76.309 0.0002zm140.46-82.308l-29.49 38.821-28.828-38.821h-4.332l31.16 41.32-34.159 44.318h3.999l32.16-41.818 32.32 41.818h4.16l-34.32-44.318 31.33-41.32h-4zm16.99 114.97v-53.321h0.33c2 7.771 5.95 14.021 11.83 18.741 5.89 4.72 13.39 7.08 22.5 7.08 5.88 0 11.1-1.19 15.66-3.58 4.55-2.39 8.36-5.64 11.41-9.74 3.06-4.11 5.39-8.891 7-14.334 1.61-5.442 2.41-11.163 2.41-17.161 0-6.442-0.83-12.385-2.49-17.827-1.67-5.443-4.09-10.164-7.25-14.162-3.17-3.999-7-7.109-11.5-9.331-4.5-2.221-9.58-3.332-15.24-3.332-4.34 0-8.36 0.639-12.08 1.916-3.72 1.278-7.03 3.082-9.92 5.415-2.88 2.333-5.38 5.082-7.49 8.247-2.11 3.166-3.73 6.637-4.84 10.414h-0.33v-23.993h-3.33v114.97h3.33zm34.66-30.66c-10.44 0-18.83-3.58-25.16-10.75-6.33-7.162-9.5-17.465-9.5-30.905 0-5.554 0.78-10.83 2.33-15.828 1.56-4.998 3.81-9.386 6.75-13.162 2.94-3.777 6.58-6.776 10.91-8.997 4.34-2.222 9.22-3.333 14.67-3.333 5.55 0 10.41 1.111 14.57 3.333 4.17 2.221 7.61 5.248 10.33 9.08 2.73 3.832 4.78 8.22 6.17 13.162 1.39 4.943 2.08 10.191 2.08 15.745 0 4.999-0.64 9.969-1.91 14.912-1.28 4.943-3.25 9.383-5.92 13.333-2.66 3.94-6.08 7.16-10.25 9.66-4.16 2.5-9.19 3.75-15.07 3.75zm54.81 1.33v-48.483c0-4.665 0.67-9.219 2-13.662s3.39-8.359 6.17-11.746c2.77-3.388 6.3-6.054 10.58-7.998 4.27-1.944 9.35-2.749 15.24-2.416v-3.332c-5.11-0.111-9.58 0.444-13.41 1.666s-7.14 2.888-9.91 4.999c-2.78 2.11-5 4.581-6.67 7.414-1.67 2.832-2.89 5.859-3.66 9.08h-0.34v-21.16h-3.33v85.638h3.33zm38.16-42.152h71.64c0.22-5.887-0.36-11.551-1.75-16.994s-3.61-10.275-6.66-14.495c-3.06-4.221-7-7.609-11.83-10.164-4.84-2.555-10.58-3.832-17.25-3.832-4.77 0-9.44 1-13.99 2.999-4.56 2-8.56 4.915-12 8.747s-6.22 8.525-8.33 14.079-3.17 11.885-3.17 18.994c0 6.331 0.73 12.246 2.17 17.744s3.67 10.274 6.66 14.324c3 4.06 6.86 7.2 11.58 9.42s10.42 3.28 17.08 3.16c9.78 0 18-2.75 24.66-8.24 6.66-5.5 10.61-13.249 11.83-23.246h-3.33c-1.45 9.442-5.14 16.526-11.08 21.246s-13.41 7.08-22.41 7.08c-6.11 0-11.28-1.06-15.5-3.17s-7.66-5-10.33-8.66c-2.66-3.67-4.63-7.971-5.91-12.914-1.28-4.942-1.97-10.302-2.08-16.078zm68.31-3.332h-68.31c0.33-5.998 1.44-11.385 3.33-16.161 1.89-4.777 4.36-8.859 7.41-12.246 3.06-3.388 6.61-5.971 10.67-7.748 4.05-1.777 8.41-2.666 13.07-2.666 5.56 0 10.45 1.028 14.67 3.083s7.74 4.859 10.58 8.414c2.83 3.554 4.97 7.692 6.41 12.412 1.45 4.721 2.17 9.692 2.17 14.912zm72.47-14.828h3.34c0-9.553-2.78-16.495-8.33-20.827-5.56-4.332-13.11-6.498-22.66-6.498-5.34 0-9.83 0.667-13.5 1.999-3.67 1.333-6.66 3.055-9 5.165-2.33 2.111-4 4.443-5 6.998-0.99 2.555-1.49 4.999-1.49 7.331 0 4.665 0.83 8.386 2.49 11.163 1.67 2.777 4.28 4.943 7.84 6.498 2.44 1.111 5.22 2.11 8.33 2.999s6.72 1.833 10.83 2.832c3.66 0.889 7.27 1.778 10.83 2.666 3.55 0.889 6.69 2.083 9.41 3.582 2.72 1.5 4.94 3.416 6.66 5.749 1.73 2.332 2.59 5.387 2.59 9.163 0 3.662-0.86 6.772-2.59 9.332-1.72 2.55-3.91 4.64-6.58 6.25-2.66 1.61-5.63 2.77-8.91 3.5-3.28 0.72-6.47 1.08-9.58 1.08-10.11 0-17.86-2.25-23.24-6.75-5.39-4.5-8.08-11.579-8.08-21.243h-3.34c0 10.773 2.92 18.663 8.75 23.663 5.83 4.99 14.47 7.49 25.91 7.49 3.66 0 7.36-0.41 11.08-1.25 3.72-0.83 7.05-2.19 10-4.08 2.94-1.89 5.33-4.33 7.16-7.33s2.75-6.66 2.75-10.995c0-4.11-0.81-7.442-2.42-9.997-1.61-2.554-3.72-4.665-6.33-6.331s-5.55-2.971-8.83-3.915c-3.28-0.945-6.58-1.861-9.91-2.749-4.67-1.222-8.75-2.278-12.25-3.166-3.5-0.889-6.75-1.944-9.75-3.166-2.88-1.222-5.19-2.971-6.91-5.248s-2.58-5.526-2.58-9.747c0-0.777 0.22-2.166 0.66-4.165 0.45-2 1.5-4.027 3.17-6.082 1.67-2.054 4.22-3.887 7.66-5.498 3.45-1.61 8.17-2.416 14.17-2.416 4.11 0 7.85 0.445 11.24 1.333 3.39 0.889 6.31 2.305 8.75 4.249s4.33 4.415 5.66 7.414c1.34 2.999 2 6.665 2 10.997zm77.15 0h3.33c0-9.553-2.78-16.495-8.33-20.827-5.56-4.332-13.11-6.498-22.66-6.498-5.33 0-9.83 0.667-13.5 1.999-3.66 1.333-6.66 3.055-9 5.165-2.33 2.111-3.99 4.443-4.99 6.998s-1.5 4.999-1.5 7.331c0 4.665 0.83 8.386 2.5 11.163 1.66 2.777 4.27 4.943 7.83 6.498 2.44 1.111 5.22 2.11 8.33 2.999s6.72 1.833 10.83 2.832c3.66 0.889 7.27 1.778 10.83 2.666 3.55 0.889 6.69 2.083 9.41 3.582 2.72 1.5 4.94 3.416 6.67 5.749 1.72 2.332 2.58 5.387 2.58 9.163 0 3.662-0.86 6.772-2.58 9.332-1.73 2.55-3.92 4.64-6.59 6.25-2.66 1.61-5.63 2.77-8.91 3.5-3.28 0.72-6.47 1.08-9.58 1.08-10.11 0-17.86-2.25-23.24-6.75-5.39-4.5-8.08-11.579-8.08-21.243h-3.34c0 10.773 2.92 18.663 8.75 23.663 5.83 4.99 14.47 7.49 25.91 7.49 3.67 0 7.36-0.41 11.08-1.25 3.72-0.83 7.05-2.19 10-4.08 2.94-1.89 5.33-4.33 7.16-7.33s2.75-6.66 2.75-10.995c0-4.11-0.81-7.442-2.42-9.997-1.61-2.554-3.72-4.665-6.33-6.331s-5.55-2.971-8.83-3.915c-3.27-0.945-6.58-1.861-9.91-2.749-4.67-1.222-8.75-2.278-12.25-3.166-3.5-0.889-6.74-1.944-9.74-3.166-2.89-1.222-5.2-2.971-6.92-5.248s-2.58-5.526-2.58-9.747c0-0.777 0.22-2.166 0.67-4.165 0.44-2 1.5-4.027 3.16-6.082 1.67-2.054 4.22-3.887 7.67-5.498 3.44-1.61 8.16-2.416 14.16-2.416 4.11 0 7.86 0.445 11.24 1.333 3.39 0.889 6.31 2.305 8.75 4.249s4.33 4.415 5.67 7.414c1.33 2.999 2 6.665 2 10.997z" fill="#222"/>
</svg>
