<?xml version="1.0" encoding="UTF-8" standalone="no"?>
<svg xmlns="http://www.w3.org/2000/svg" height="139px" width="512px" version="1.1" preserveAspectRatio="xMidYMid" xmlns:xlink="http://www.w3.org/1999/xlink" viewBox="0 0 512 139">
 <path d="m98.696 59.312h-43.061c-1.11 0-2.012 0.903-2.012 2.014v21.053c0 1.111 0.902 2.015 2.012 2.015h16.799v26.156s-3.772 1.29-14.2 1.29c-12.303 0-29.49-4.5-29.49-42.291 0-37.8 17.897-42.773 34.698-42.773 14.543 0 20.809 2.561 24.795 3.794 1.253 0.384 2.412-0.863 2.412-1.975l4.803-20.342c0-0.5192-0.176-1.1456-0.769-1.5713-1.619-1.1545-11.496-6.6817-36.449-6.6817-28.747-1.4211e-14 -58.234 12.23-58.234 71.023 0 58.797 33.761 67.557 62.209 67.557 23.556 0 37.841-10.07 37.841-10.07 0.59-0.32 0.66-1.15 0.66-1.52v-65.664c0-1.111-0.903-2.014-2.014-2.014zm221.8-51.953c0-1.1203-0.89-2.0241-2-2.0241h-24.25c-1.11 0-2.01 0.9038-2.01 2.0241 0 0.0054 0.01 46.856 0.01 46.856h-37.79v-46.856c0-1.1201-0.9-2.0239-2-2.0239h-24.25c-1.1 0-2 0.9038-2 2.0241v126.87c0 1.12 0.9 2.03 2 2.03h24.25c1.1 0 2-0.91 2-2.03v-54.266h37.79l-0.07 54.266c0 1.12 0.9 2.03 2.01 2.03h24.3c1.12 0 2-0.91 2.01-2.03v-126.87zm-176.13 16.963c0-8.731-7-15.786-15.63-15.786-8.63 0.0002-15.64 7.055-15.64 15.786 0 8.72 7.01 15.795 15.64 15.795s15.63-7.075 15.63-15.795zm-1.92 83.208v-58.56c0-1.112-0.9-2.021-2.01-2.021h-24.17c-1.11 0-2.1 1.144-2.1 2.256v83.905c0 2.47 1.54 3.2 3.53 3.2h21.77c2.39 0 2.98-1.17 2.98-3.24v-25.54zm270.71-60.581h-24.06c-1.1 0-2 0.909-2 2.028v62.213s-6.11 4.47-14.79 4.47c-8.67 0-10.98-3.94-10.98-12.43v-54.253c0-1.119-0.89-2.028-2-2.028h-24.41c-1.11 0-2.01 0.909-2.01 2.028v58.363c0 25.23 14.06 31.4 33.41 31.4 15.87 0 28.66-8.77 28.66-8.77s0.61 4.62 0.89 5.17c0.27 0.55 0.99 1.1 1.77 1.1l15.53-0.07c1.1 0 2.01-0.91 2.01-2.03l-0.01-85.163c0-1.119-0.9-2.028-2.01-2.028zm55.44 68.761c-8.35-0.26-14.01-4.04-14.01-4.04v-40.182s5.59-3.423 12.44-4.035c8.66-0.776 17.01 1.841 17.01 22.51 0 21.797-3.77 26.097-15.44 25.747zm9.49-71.486c-13.67 0-22.96 6.097-22.96 6.097v-42.962c0-1.1201-0.9-2.0239-2-2.0239h-24.32c-1.1 0-2 0.9038-2 2.0241v126.87c0 1.12 0.9 2.03 2.01 2.03h16.86c0.76 0 1.34-0.39 1.76-1.08 0.42-0.68 1.03-5.85 1.03-5.85s9.94 9.43 28.76 9.43c22.1 0 34.77-11.21 34.77-50.319 0-39.107-20.24-44.217-33.91-44.217zm-265.86 2.507h-18.19s-0.03-24.022-0.03-24.027c0-0.909-0.46-1.364-1.52-1.364h-24.78c-0.96 0-1.48 0.424-1.48 1.35v24.83s-12.42 2.998-13.26 3.24-1.45 1.014-1.45 1.934v15.603c0 1.122 0.89 2.027 2 2.027h12.71v37.536c0 27.88 19.56 30.62 32.75 30.62 6.03 0 13.24-1.94 14.44-2.38 0.72-0.26 1.13-1.01 1.13-1.82l0.02-17.16c0-1.12-0.94-2.03-2.01-2.03-1.06 0-3.77 0.44-6.56 0.44-8.93 0-11.96-4.16-11.96-9.54v-35.666h18.19c1.11 0 2.01-0.905 2.01-2.027v-19.544c0-1.119-0.9-2.022-2.01-2.022z" fill="#11110F"/>
</svg>
