<?xml version="1.0" encoding="UTF-8" standalone="no"?>
<svg xmlns="http://www.w3.org/2000/svg" height="566px" width="256px" version="1.1" preserveAspectRatio="xMidYMid" xmlns:xlink="http://www.w3.org/1999/xlink" viewBox="0 0 256 566">
 <path d="m197.28 548.75l5.43-90.43 14.98-25.58s-34.1 13.95-91.2 13.95c-57.103 0-90.692-13.69-90.692-13.69l16.794 27.9 5.941 87.85c0 9.42 31.059 17.05 69.377 17.05 38.31 0 69.37-7.63 69.37-17.05" fill="#D34A47"/>
 <path d="m180.16 126.45l11.39-45.021 63.08-66.376-16.62-14.161-66.79 70.707-13.22 53.791c-9.59-0.32-19.59-0.49-29.88-0.49-70.332 0-127.35 8.01-127.35 17.9-0.001 9.88 57.018 17.9 127.35 17.9 70.34 0 127.36-8.02 127.36-17.9 0-7.28-30.93-13.55-75.32-16.35" fill="#D34A47"/>
 <path d="m173.54 151.67s-2.47 0.55-9.73 0.58-12.41-0.04-14.47-1.91c-0.55-0.51-0.85-1.5-0.85-2.18 0.01-1.28 0.92-2.04 2.08-2.51l1.1 1.72c-0.47 0.17-0.75 0.36-0.75 0.57 0 0.97 7.42 1.64 13.1 1.57s12.55-0.54 12.55-1.5c0-0.29-0.51-0.57-1.42-0.78l1.1-1.71c1.47 0.45 2.75 1.34 2.75 2.86-0.01 2.6-3.32 3-5.46 3.29" fill="#fff"/>
 <path d="m254.51 15.184c1.59-1.832-0.82-6.518-5.38-10.465-4.55-3.945-9.53-5.659-11.12-3.827s0.82 6.518 5.37 10.463c4.56 3.946 9.54 5.662 11.13 3.829" fill="#D34A47"/>
 <path d="m194.25 327.86c-1.5-14.38 31.46-35.21 23-35.88-18.21 1.04-27.27 21.34-36.43 42.6-3.36 7.79-14.84 41.01-22.38 36.92-7.53-4.09 9.77-31.41 14.61-47.63-5.59 4.1-26.11 20.04-31.39 5.11-8.5 7.22-26.66 11.13-24.62-7.83-4.52 8.01-14.67 19.19-26.849 14.55-15.998-6.1 9.27-57.06 15.549-54.49 6.29 2.57-1.26 14.17-3.24 18.68-4.352 9.92-9.377 22.4-6.02 24.95 5.75 4.37 21.4-16.55 21.75-17.01 2.93-3.87 11.27-29.16 17.99-26.26 6.72 2.91-16.77 36.31-7.99 42.94 1.77 1.34 9.02-0.83 13.43-5.6 2.85-3.08 1.87-9.91 11.38-32.59 9.5-22.67 17.98-50.9 24.5-48.75s1.14 16.64-1.2 22.04c-10.97 25.36-29.95 67.24-21 64.07s13.61-3.35 22.38-13.61c8.76-10.26 8.36-27.15 14.2-26.79s4.86 5.77 3.44 9.9c5.75-6.58 27.26-20.44 32.45-6.71 6.15 16.25-30.77 39.72-21.56 38.52 8.97-1.17 23.51-10.38 29.72-18.75l17.09-153.63s-17.2 14.23-126.59 14.23c-109.4 0-124.81-13.93-124.81-13.93l14.547 140.22c7.722-21.94 26.059-66.33 54.963-64.85 13.148 0.68 30.7 26 15.665 26.86-6.364 0.36-7.01-12.64-14.546-14.55-5.438-1.38-13.009 3.05-17.902 7.83-9.758 9.56-30.745 47.23-27.972 66.02 3.533 23.95 33.048-8.32 38.042-17.9 3.517-6.75 5.893-26.75 13.585-24.65 7.693 2.1-0.671 22.73-6.247 40.98-6.264 20.49-9.557 42.1-17.408 39.61-7.852-2.48 4.938-28.93 4.475-33.57-7.38 6.81-20.976 24.05-38.37 15.52l9.035 87.08s24.013 18.97 96.353 18.97c72.33 0 97.24-18.68 97.24-18.68l11.22-100.85c-9.18 8.93-38.23 24.81-40.09 6.91" fill="#D34A47"/>
</svg>
