<?xml version="1.0" encoding="UTF-8" standalone="no"?>
<svg xmlns="http://www.w3.org/2000/svg" height="124px" width="512px" version="1.1" preserveAspectRatio="xMidYMid" xmlns:xlink="http://www.w3.org/1999/xlink" viewBox="0 0 512 124">
 <path d="m188.43 0.00086924c17.8-0.077532 36.05 5.0285 49.89 16.536 7.09 5.738 12.81 12.937 17.68 20.602 8.75-14.144 21.53-26.162 37.29-31.955 19.2-7.21 40.91-6.7116 60.09 0.3549 16.74 6.1141 31.39 16.769 44.67 28.487 10.38 9.171 20 19.206 30.7 28.034 5.64 4.574 11.69 8.861 18.63 11.231 9.21 3.145 20.11 0.177 26.7-6.923 6.1-6.645 5.73-18.131-0.99-24.201-4.28-3.688-11.59-2.946-14.61 1.972-2.65 3.899-1.17 8.761 0.9 12.538-5.5-4.021-11.02-9.625-10.99-16.935-1.15-8.451 5.12-15.906 12.63-18.863 14.66-5.859 33.03-0.808 42.28 12.095 8.89 12.04 9.6 27.867 8.05 42.211-1.87 13.623-9.49 26.335-20.79 34.225-15.86 11.32-35.96 14.83-55.09 14.59-18.39-0.5-36.58-4.66-53.62-11.52-28.49-11.45-55.15-27.282-84.56-36.431-9.76-3.788-20.14-5.837-30.57-6.469-8.31-0.055-16.18-0.443-24.03 0.089-9.57 0.919-19.08 2.88-28.04 6.391-29.92 9.304-56.98 25.53-86.01 37-24.51 9.54-51.666 13.97-77.683 8.68-14.554-2.95-29.042-9.38-38.866-20.85-8.4068-9.745-12.438-22.792-12.04-35.574-0.46493-12.062 2.1822-24.877 10.157-34.269 7.421-8.905 19.372-13.424 30.847-12.427 7.387 0.343 14.875 3.566 19.438 9.514 3.589 4.707 3.81 11.154 2.237 16.658-1.916 4.951-5.87 8.817-10.167 11.785 2.193-3.699 3.522-8.584 0.93-12.449-3.19-5.151-11.043-5.671-15.196-1.44-5.117 5.261-6.192 13.856-2.758 20.302 3.721 6.757 11.419 10.611 18.873 11.397 11.276 0.975 21.056-6.014 29.33-12.792 17.128-14.743 32.538-31.611 51.538-44.083 15.66-10.5 34.11-17.6 53.15-17.511v-0.00013076z" fill="#423426"/>
</svg>
