<?xml version="1.0" encoding="UTF-8" standalone="no"?>
<svg xmlns="http://www.w3.org/2000/svg" height="146px" width="512px" version="1.1" xmlns:xlink="http://www.w3.org/1999/xlink" viewBox="0 0 512 146">
 <g fill-rule="evenodd" fill="none">
  <path d="m476.71 60.463c-0.46 0.092-0.92 1.107-0.92 1.661-0.09 3.691-0.18 13.473-0.18 20.117 0 0.185 0.27 0.554 0.55 0.554 1.38 0.092 4.71 0.184 7.57 0.184 3.97 0 6.27-0.553 7.56-1.106 3.33-1.662 4.89-5.261 4.89-9.229 0-8.951-6.27-12.366-15.59-12.366-0.65-0.092-2.49-0.092-3.88 0.185zm23.81 41.247c0-9.133-6.73-14.209-18.92-14.209-0.55 0-4.42-0.092-5.35 0.092-0.27 0.093-0.64 0.278-0.64 0.555 0 6.551-0.1 16.982 0.18 21.042 0.19 1.75 1.48 4.24 3.05 4.98 1.66 0.92 5.44 1.11 8.02 1.11 7.3 0 13.66-4.06 13.66-13.57zm-42.63-46.322c0.92 0 3.69 0.276 10.8 0.276 6.73 0 12.08-0.184 18.64-0.184 8.02 0 19.1 2.86 19.1 14.857 0 5.906-4.15 10.613-9.6 12.92-0.28 0.092-0.28 0.276 0 0.368 7.75 1.939 14.58 6.737 14.58 15.781 0 8.864-5.54 14.484-13.56 17.994-4.9 2.12-10.99 2.86-17.17 2.86-4.7 0-17.35-0.55-24.36-0.37-0.74-0.27 0.65-3.6 1.29-4.15 1.66-0.09 2.95-0.19 4.71-0.74 2.49-0.64 2.77-1.38 3.14-5.17 0.18-3.23 0.18-14.67 0.18-22.79 0-11.166 0.09-18.733 0-22.424-0.09-2.861-1.11-3.784-3.14-4.338-1.57-0.276-4.15-0.646-6.27-0.922-0.46-0.462 1.1-3.6 1.66-3.968zm-53.25 57.402c2.22 1.75 6.55 2.49 10.43 2.49 4.98 0 9.97-0.92 14.76-5.26 4.9-4.43 8.31-11.26 8.31-22.149 0-10.429-3.97-18.919-12.09-23.901-4.61-2.862-10.52-4.061-17.35-4.061-2.03 0-3.97 0.093-5.17 0.646-0.27 0.185-0.92 1.015-0.92 1.476-0.18 1.846-0.18 16.057-0.18 24.363 0 8.582 0 20.576 0.18 21.966 0 1.38 0.65 3.5 2.03 4.43zm-20.95-57.402c1.76 0 8.49 0.276 11.72 0.276 5.82 0 9.97-0.276 20.95-0.276 9.23 0 16.98 2.491 22.52 7.197 6.73 5.814 10.24 13.843 10.24 23.624 0 13.931-6.37 21.961-12.73 26.581-6.37 4.7-14.68 7.47-26.49 7.47-6.27 0-17.07-0.18-26.02-0.28h-0.09c-0.47-0.83 0.73-4.06 1.47-4.15 2.4-0.28 3.05-0.37 4.25-0.83 1.94-0.74 2.3-1.75 2.58-5.17 0.28-6.36 0.19-14.023 0.19-22.698 0-6.182 0.09-18.272-0.1-22.148-0.27-3.229-1.66-4.059-4.43-4.614-1.38-0.276-3.23-0.646-5.81-0.922-0.37-0.647 1.29-3.507 1.75-4.06z" fill="#8E714E"/>
  <path d="m272.03 116.39c-2.3-0.28-3.96-0.65-6-1.57-0.27-0.19-0.73-1.11-0.73-1.48-0.19-3.23-0.19-12.46-0.19-18.641 0-4.983-0.83-9.32-2.95-12.365-2.49-3.508-6.09-5.537-10.71-5.537-4.06 0-9.5 2.768-14.02 6.644-0.1 0.092-0.83 0.739-0.74-0.277 0-1.015 0.18-3.045 0.28-4.429 0.09-1.293-0.65-1.938-0.65-1.938-2.95 1.476-11.26 3.414-14.3 3.691-2.22 0.462-2.77 2.584-0.46 3.322h0.09c2.49 0.738 4.15 1.569 5.44 2.399 0.92 0.739 0.83 1.754 0.83 2.585 0.09 6.921 0.09 17.536-0.18 23.346-0.09 2.31-0.74 3.14-2.4 3.51l0.18-0.1c-1.29 0.28-2.3 0.56-3.87 0.74-0.56 0.56-0.56 3.51 0 4.16 1.01 0 6.36-0.28 10.79-0.28 6.1 0 9.23 0.28 10.8 0.28 0.65-0.74 0.83-3.51 0.46-4.16-1.75-0.09-3.04-0.27-4.24-0.64-1.66-0.37-2.13-1.2-2.22-3.14-0.18-4.89-0.18-15.227-0.18-22.24 0-1.938 0.55-2.861 1.11-3.415 2.12-1.845 5.53-3.137 8.58-3.137 2.95 0 4.89 0.923 6.37 2.123 2.03 1.66 2.67 4.059 2.95 5.813 0.46 3.968 0.28 11.816 0.28 18.636 0 3.7-0.28 4.62-1.67 5.08-0.64 0.28-2.3 0.65-4.24 0.83-0.65 0.65-0.46 3.51 0 4.15 2.68 0 5.81-0.27 10.43-0.27 5.72 0 9.41 0.27 10.89 0.27 0.46-0.55 0.64-3.23 0.27-3.96zm25.57-35.256c-4.9 0-7.94 3.784-7.94 9.689 0 5.999 2.67 12.917 10.24 12.917 1.29 0 3.69-0.55 4.8-1.84 1.75-1.66 2.95-4.986 2.95-8.492 0-7.66-3.78-12.274-10.05-12.274zm-0.65 40.786c-1.85 0-3.14 0.56-3.97 1.02-3.88 2.49-5.63 4.89-5.63 7.75 0 2.68 1.02 4.8 3.23 6.64 2.68 2.31 6.37 3.42 11.08 3.42 9.41 0 13.56-5.08 13.56-10.06 0-3.51-1.75-5.81-5.35-7.11-2.59-1.1-7.29-1.66-12.92-1.66zm0.65 24c-5.63 0-9.69-1.2-13.2-3.88-3.42-2.58-4.89-6.46-4.89-9.14 0-0.73 0.18-2.76 1.84-4.61 1.02-1.11 3.23-3.23 8.49-6.83 0.19-0.09 0.28-0.18 0.28-0.37 0-0.18-0.18-0.37-0.37-0.46-4.34-1.66-5.63-4.34-6-5.81v-0.19c-0.09-0.55-0.27-1.11 0.56-1.66 0.64-0.46 1.57-1.01 2.58-1.66 1.57-0.92 3.23-1.94 4.25-2.77 0.18-0.18 0.18-0.37 0.18-0.55 0-0.19-0.18-0.37-0.37-0.46-6.46-2.13-9.69-6.93-9.69-14.122 0-4.707 2.12-8.952 5.91-11.628 2.58-2.031 9.04-4.522 13.29-4.522h0.27c4.34 0.092 6.74 1.015 10.15 2.215 1.85 0.646 3.6 0.922 6 0.922 3.6 0 5.17-1.107 6.46-2.398 0.09 0.184 0.28 0.646 0.37 1.845 0.09 1.2-0.28 2.953-1.2 4.245-0.74 1.015-2.4 1.754-4.06 1.754h-0.46c-1.66-0.185-2.4-0.37-2.4-0.37l-0.37 0.185c-0.09 0.185 0 0.369 0.09 0.646l0.1 0.185c0.18 0.83 0.55 3.321 0.55 3.968 0 7.567-3.05 10.885-6.28 13.375-3.13 2.31-6.73 3.79-10.79 4.16-0.1 0-0.46 0-1.29 0.09-0.47 0-1.11 0.09-1.2 0.09h-0.1c-0.74 0.19-2.58 1.11-2.58 2.68 0 1.38 0.83 3.04 4.8 3.32 0.83 0.09 1.66 0.09 2.58 0.19 5.26 0.36 11.81 0.83 14.86 1.84 4.24 1.57 6.92 5.35 6.92 9.88 0 6.82-4.89 13.19-13.01 17.16-3.97 1.75-7.94 2.68-12.27 2.68zm52.6-64.325c-1.94 0-3.7 0.461-4.99 1.384-3.6 2.215-5.44 6.645-5.44 13.104 0 12.087 6.09 20.577 14.76 20.577 2.59 0 4.62-0.74 6.37-2.21 2.68-2.22 4.06-6.65 4.06-12.83 0-11.996-6-20.025-14.76-20.025zm1.66 39.495c-15.69 0-21.32-11.53-21.32-22.33 0-7.567 3.04-13.381 9.14-17.534 4.33-2.676 9.5-4.152 14.11-4.152 12 0 20.4 8.582 20.4 20.948 0 8.398-3.32 15.038-9.69 19.098-3.05 2.03-8.31 3.97-12.64 3.97zm-164.45-39.495c-1.94 0-3.69 0.461-4.98 1.384-3.6 2.215-5.45 6.645-5.45 13.104 0 12.087 6.09 20.577 14.77 20.577 2.58 0 4.61-0.74 6.37-2.21 2.67-2.22 4.06-6.65 4.06-12.83 0-11.996-5.91-20.025-14.77-20.025zm1.66 39.495c-15.69 0-21.32-11.53-21.32-22.33 0-7.567 3.05-13.381 9.14-17.534 4.34-2.676 9.51-4.152 14.12-4.152 12 0 20.39 8.582 20.39 20.948 0 8.398-3.32 15.038-9.69 19.098-2.95 2.03-8.21 3.97-12.64 3.97zm-105.48-0.92c-0.185-0.28-0.369-1.11-0.277-2.12 0-0.74 0.185-1.2 0.277-1.39 1.938-0.27 2.953-0.55 4.06-0.83 1.846-0.46 2.584-1.47 2.676-3.78 0.278-5.54 0.278-16.059 0.185-23.349v-0.185c0-0.83 0-1.846-1.015-2.584-1.477-0.922-3.23-1.752-5.537-2.399-0.831-0.276-1.384-0.738-1.292-1.292 0-0.553 0.554-1.199 1.754-1.384 3.045-0.277 10.981-2.214 14.118-3.599 0.185 0.184 0.462 0.739 0.462 1.477l-0.092 1.014c-0.093 1.016-0.185 2.216-0.185 3.415 0 0.369 0.369 0.646 0.738 0.646 0.185 0 0.37-0.092 0.554-0.185 5.91-4.614 11.26-6.275 14.03-6.275 4.52 0 8.03 2.123 10.7 6.552 0.19 0.278 0.37 0.369 0.65 0.369 0.18 0 0.46-0.091 0.55-0.276 5.45-4.153 10.89-6.645 14.49-6.645 8.58 0 13.66 6.368 13.66 17.165 0 3.045 0 7.015-0.1 10.615 0 3.23-0.09 6.18-0.09 8.3 0 0.46 0.65 1.94 1.66 2.22 1.3 0.64 3.05 0.92 5.36 1.29h0.09c0.18 0.64-0.19 3.04-0.56 3.51-0.55 0-1.38 0-2.3-0.1-1.76-0.09-4.25-0.18-7.02-0.18-5.72 0-8.67 0.09-11.53 0.28-0.19-0.74-0.28-2.96 0-3.51 1.66-0.28 2.49-0.55 3.51-0.83 1.84-0.56 2.3-1.39 2.4-3.79 0-1.75 0.36-16.698-0.19-20.297-0.55-3.691-3.32-8.028-9.41-8.028-2.31 0-5.91 0.923-9.42 3.598-0.18 0.185-0.36 0.646-0.36 0.923v0.093c0.36 1.937 0.36 4.153 0.36 7.567v5.994c0 4.16-0.09 8.03 0 10.99 0 2.03 1.2 2.49 2.22 2.86 0.55 0.09 0.92 0.18 1.38 0.27 0.83 0.19 1.67 0.37 2.96 0.65 0.18 0.37 0.18 1.57-0.1 2.58-0.09 0.56-0.27 0.83-0.36 0.93-3.14-0.1-6.37-0.19-11.08-0.19-1.38 0-3.78 0.09-5.81 0.09-1.66 0-3.23 0.1-4.15 0.1-0.1-0.19-0.28-0.83-0.28-1.85 0-0.83 0.18-1.48 0.37-1.66 0.46-0.09 0.83-0.19 1.29-0.19 1.11-0.18 2.03-0.36 2.95-0.55 1.57-0.46 2.12-1.29 2.22-3.32 0.27-4.61 0.55-17.811-0.1-21.134-1.1-5.352-4.15-8.028-9.04-8.028-2.86 0-6.46 1.384-9.411 3.599-0.462 0.369-0.831 1.292-0.831 2.122v5.445c0 6.646 0 14.946 0.092 18.546 0.093 1.11 0.461 2.4 2.58 2.86 0.47 0.1 1.2 0.28 2.13 0.37l1.66 0.28c0.18 0.55 0.09 2.77-0.28 3.51-0.92 0-2.03-0.1-3.32-0.1-1.939-0.09-4.431-0.18-7.199-0.18-3.23 0-5.537 0.09-7.383 0.18-1.292-0.18-2.307-0.18-3.414-0.18z" fill="#442D22"/>
  <path d="m35.053 142.32l-3.783-1.3s0.462-19.28-6.459-20.67c-4.614-5.35 0.738-227.01 17.348-0.73 0 0-5.721 2.86-6.736 7.75-1.108 4.8-0.37 14.95-0.37 14.95z" fill="#fff"/>
  <path d="m35.053 142.32l-3.783-1.3s0.462-19.28-6.459-20.67c-4.614-5.35 0.738-227.01 17.348-0.73 0 0-5.721 2.86-6.736 7.75-1.108 4.8-0.37 14.95-0.37 14.95z" fill="#A6A385"/>
  <path d="m37.084 123.68s33.129-21.78 25.377-67.093c-7.474-32.944-25.101-43.741-27.038-47.894-2.122-2.9531-4.153-8.1206-4.153-8.1206l1.385 91.635c0 0.093-2.861 28.053 4.429 31.473" fill="#fff"/>
  <path d="m37.084 123.68s33.129-21.78 25.377-67.093c-7.474-32.944-25.101-43.741-27.038-47.894-2.122-2.9531-4.153-8.1206-4.153-8.1206l1.385 91.635c0 0.093-2.861 28.053 4.429 31.473" fill="#499D4A"/>
  <path d="m29.333 124.88s-31.1-21.23-29.254-58.603c1.7531-37.374 23.716-55.738 27.961-59.061 2.769-2.9525 2.861-4.0602 3.046-7.0131 1.938 4.153 1.569 62.106 1.845 68.934 0.831 26.3-1.476 50.753-3.598 55.743z" fill="#fff"/>
  <path d="m29.333 124.88s-31.1-21.23-29.254-58.603c1.7531-37.374 23.716-55.738 27.961-59.061 2.769-2.9525 2.861-4.0602 3.046-7.0131 1.938 4.153 1.569 62.106 1.845 68.934 0.831 26.3-1.476 50.753-3.598 55.743z" fill="#58AA50"/>
 </g>
</svg>
