<?xml version="1.0" encoding="UTF-8" standalone="no"?>
<svg xmlns="http://www.w3.org/2000/svg" height="314px" width="512px" version="1.1" preserveAspectRatio="xMidYMid" xmlns:xlink="http://www.w3.org/1999/xlink" viewBox="0 0 512 314">
 <defs>
  <linearGradient id="linearGradient-1" y1="17.487%" x2="27.823%" x1="68.188%" y2="89.755%">
   <stop stop-color="#41873F" offset="0"/>
   <stop stop-color="#418B3D" offset=".3288"/>
   <stop stop-color="#419637" offset=".6352"/>
   <stop stop-color="#3FA92D" offset=".9319"/>
   <stop stop-color="#3FAE2A" offset="1"/>
  </linearGradient>
  <path id="path-2" d="m57.903 1.8492c-1.849-1.0402-4.045-1.0402-5.894 0l-48.657 28.085c-1.8495 1.04-2.8897 3.005-2.8897 5.085v56.286c0 2.08 1.1558 4.045 2.8894 5.085l48.657 28.08c1.849 1.05 4.045 1.05 5.894 0l48.657-28.08c1.85-1.04 2.89-3.005 2.89-5.085v-56.286c0-2.08-1.16-4.045-2.89-5.085l-48.657-28.085v0.0002z"/>
  <linearGradient id="linearGradient-4" y1="55.169%" x2="159.25%" x1="43.277%" y2="-18.306%">
   <stop stop-color="#41873F" offset=".1376"/>
   <stop stop-color="#54A044" offset=".4032"/>
   <stop stop-color="#66B848" offset=".7136"/>
   <stop stop-color="#6CC04A" offset=".9081"/>
  </linearGradient>
  <linearGradient id="linearGradient-5" y1="13.43%" x2="5327.9%" x1="-4413.8%" y2="13.43%">
   <stop stop-color="#6CC04A" offset=".091916"/>
   <stop stop-color="#66B848" offset=".2864"/>
   <stop stop-color="#54A044" offset=".5968"/>
   <stop stop-color="#41873F" offset=".8624"/>
  </linearGradient>
  <linearGradient id="linearGradient-6" y1="49.997%" x2="101.5%" x1="-4.3888%" y2="49.997%">
   <stop stop-color="#6CC04A" offset=".091916"/>
   <stop stop-color="#66B848" offset=".2864"/>
   <stop stop-color="#54A044" offset=".5968"/>
   <stop stop-color="#41873F" offset=".8624"/>
  </linearGradient>
  <linearGradient id="linearGradient-7" y1="36.21%" x2="27.93%" x1="-9713.8%" y2="36.21%">
   <stop stop-color="#6CC04A" offset=".091916"/>
   <stop stop-color="#66B848" offset=".2864"/>
   <stop stop-color="#54A044" offset=".5968"/>
   <stop stop-color="#41873F" offset=".8624"/>
  </linearGradient>
  <linearGradient id="linearGradient-8" y1="50.275%" x2="100.8%" x1="-103.86%" y2="50.275%">
   <stop stop-color="#6CC04A" offset=".091916"/>
   <stop stop-color="#66B848" offset=".2864"/>
   <stop stop-color="#54A044" offset=".5968"/>
   <stop stop-color="#41873F" offset=".8624"/>
  </linearGradient>
  <linearGradient id="linearGradient-9" y1="-211.07%" x2="4.3933%" x1="130.61%" y2="201.61%">
   <stop stop-color="#41873F" offset="0"/>
   <stop stop-color="#418B3D" offset=".3288"/>
   <stop stop-color="#419637" offset=".6352"/>
   <stop stop-color="#3FA92D" offset=".9319"/>
   <stop stop-color="#3FAE2A" offset="1"/>
  </linearGradient>
 </defs>
 <g fill="none">
  <path d="m253.11 313.09c-1.73 0-3.35-0.46-4.85-1.27l-15.38-9.13c-2.31-1.27-1.15-1.73-0.46-1.96 3.12-1.04 3.7-1.27 6.94-3.12 0.34-0.23 0.81-0.12 1.15 0.11l11.79 7.05c0.46 0.23 1.04 0.23 1.39 0l46.11-26.7c0.47-0.23 0.7-0.69 0.7-1.27v-53.28c0-0.57-0.23-1.04-0.7-1.27l-46.11-26.58c-0.46-0.23-1.04-0.23-1.39 0l-46.11 26.58c-0.47 0.23-0.7 0.81-0.7 1.27v53.28c0 0.47 0.23 1.04 0.7 1.27l12.59 7.29c6.82 3.46 11.1-0.58 11.1-4.63v-52.58c0-0.7 0.58-1.39 1.39-1.39h5.89c0.69 0 1.39 0.58 1.39 1.39v52.58c0 9.13-4.97 14.45-13.64 14.45-2.66 0-4.74 0-10.63-2.89l-12.14-6.93c-3-1.74-4.85-4.97-4.85-8.44v-53.28c0-3.47 1.85-6.7 4.85-8.44l46.12-26.7c2.89-1.61 6.82-1.61 9.7 0l46.12 26.7c3 1.74 4.85 4.97 4.85 8.44v53.28c0 3.47-1.85 6.7-4.85 8.44l-46.12 26.69c-1.5 0.7-3.23 1.04-4.85 1.04zm14.22-36.63c-20.23 0-24.39-9.25-24.39-17.11 0-0.69 0.58-1.39 1.39-1.39h6.01c0.69 0 1.27 0.47 1.27 1.16 0.92 6.13 3.58 9.13 15.83 9.13 9.71 0 13.87-2.19 13.87-7.4 0-3-1.15-5.2-16.3-6.7-12.59-1.27-20.45-4.04-20.45-14.1 0-9.36 7.86-14.91 21.03-14.91 14.8 0 22.08 5.09 23 16.18 0 0.35-0.11 0.7-0.34 1.04-0.24 0.23-0.58 0.46-0.93 0.46h-6.01c-0.58 0-1.15-0.46-1.27-1.04-1.39-6.35-4.97-8.43-14.45-8.43-10.63 0-11.9 3.7-11.9 6.47 0 3.35 1.5 4.39 15.83 6.24 14.22 1.85 20.92 4.51 20.92 14.45-0.11 10.17-8.44 15.95-23.11 15.95z" fill="#539E43"/>
  <path d="m110.03 104.71c0-2.08-1.16-4.04-3.01-5.084l-49.001-28.2c-0.809-0.463-1.734-0.694-2.658-0.809h-0.463c-0.924 0-1.849 0.346-2.658 0.809l-49.004 28.2c-1.8491 1.044-3.0048 3.004-3.0048 5.084l0.11553 75.82c0 1.04 0.57787 2.08 1.5025 2.54 0.9246 0.58 2.0804 0.58 2.8894 0l29.125-16.64c1.849-1.04 3.005-3.01 3.005-5.09v-35.48c0-2.08 1.155-4.04 3.005-5.08l12.366-7.17c0.925-0.58 1.965-0.81 3.005-0.81s2.081 0.23 2.89 0.81l12.366 7.17c1.849 1.04 3.005 3 3.005 5.08v35.48c0 2.08 1.156 4.05 3.005 5.09l29.129 16.64c0.92 0.58 2.08 0.58 3 0 0.93-0.46 1.5-1.5 1.5-2.54l-0.11-75.82z" fill="#333"/>
  <path d="m345.57 0.34673c-0.92-0.46231-2.08-0.46231-2.89 0-0.92 0.57787-1.5 1.5025-1.5 2.5427v75.125c0 0.693-0.35 1.386-1.04 1.849-0.69 0.346-1.39 0.346-2.08 0l-12.25-7.05c-1.85-1.041-4.05-1.041-5.9 0l-49 28.317c-1.85 1.04-3.01 3-3.01 5.08v56.52c0 2.08 1.16 4.05 3.01 5.09l49 28.31c1.85 1.04 4.05 1.04 5.9 0l49-28.31c1.85-1.04 3.01-3.01 3.01-5.09v-140.89c0-2.192-1.16-4.157-3.01-5.197l-29.24-16.296v-0.00027zm-4.51 143.77c0 0.58-0.23 1.04-0.69 1.27l-16.76 9.71c-0.46 0.23-1.04 0.23-1.5 0l-16.76-9.71c-0.46-0.23-0.69-0.8-0.69-1.27v-19.41c0-0.58 0.23-1.04 0.69-1.28l16.76-9.7c0.46-0.23 1.04-0.23 1.5 0l16.76 9.7c0.46 0.24 0.69 0.81 0.69 1.28v19.41z" fill="#333"/>
  <g transform="translate(401.05 70.501)">
   <path d="m107.6 53.743c1.85-1.041 2.89-3.005 2.89-5.086v-13.753c0-2.081-1.16-4.045-2.89-5.085l-48.656-28.201c-1.85-1.0401-4.046-1.0401-5.895 0.0001l-49.004 28.316c-1.8491 1.04-3.0048 3.005-3.0048 5.085v56.517c0 2.08 1.1557 4.045 3.0049 5.085l48.657 27.739c1.85 1.04 4.046 1.04 5.779 0l29.472-16.41c0.925-0.46 1.503-1.5 1.503-2.55 0-1.04-0.578-2.08-1.503-2.54l-49.235-28.314c-0.925-0.578-1.503-1.502-1.503-2.542v-17.683c0-1.041 0.578-2.081 1.503-2.543l15.371-8.784c0.925-0.578 2.081-0.578 3.005 0l15.372 8.784c0.925 0.578 1.502 1.502 1.502 2.543v13.869c0 1.04 0.578 2.08 1.503 2.542 0.924 0.578 2.08 0.578 3.005 0l29.124-16.989z" fill="#333"/>
   <path d="m55.245 51.084c0.347-0.231 0.809-0.231 1.156 0l9.362 5.432c0.346 0.232 0.577 0.578 0.577 1.041v10.864c0 0.462-0.231 0.809-0.577 1.04l-9.362 5.432c-0.347 0.231-0.809 0.231-1.156 0l-9.361-5.432c-0.347-0.231-0.578-0.578-0.578-1.04v-10.864c0-0.463 0.231-0.809 0.578-1.041l9.361-5.432z" fill="#539E43"/>
  </g>
  <g transform="translate(134.07 70.501)">
   <mask id="mask-3" fill="white">
    <use xlink:href="#path-2"/>
   </mask>
   <use xlink:href="#path-2" fill="url(#linearGradient-1)"/>
   <g mask="url(#mask-3)">
    <path d="m51.893 1.8492l-48.772 28.085c-1.8497 1.04-3.121 3.005-3.121 5.085v56.286c0 1.387 0.57788 2.658 1.5025 3.698l54.782-93.847c-1.386-0.2314-3.004-0.1158-4.391 0.6932z"/>
    <path d="m56.632 125.05c0.462-0.11 0.925-0.34 1.387-0.58l48.771-28.08c1.85-1.04 3.01-3.005 3.01-5.085v-56.286c0-1.502-0.7-3.005-1.74-4.045l-51.428 94.076z"/>
    <path d="m106.68 29.934l-48.892-28.085c-0.462-0.2309-1.04-0.4621-1.503-0.5777l-54.782 93.848c0.4618 0.578 1.0397 1.04 1.6175 1.387l48.888 28.084c1.388 0.81 3.006 1.04 4.508 0.58l51.434-94.08c-0.35-0.462-0.81-0.809-1.27-1.156z" fill="url(#linearGradient-4)"/>
   </g>
   <g mask="url(#mask-3)">
    <g transform="translate(0 -9.246)">
     <path d="m109.8 100.55v-56.285c0-2.08-1.27-4.045-3.12-5.085l-48.892-28.085c-0.578-0.346-1.156-0.578-1.849-0.693l53.511 91.418c0.23-0.34 0.35-0.81 0.35-1.27z" fill="none"/>
     <path d="m3.1205 39.18c-1.8492 1.04-3.1205 3.005-3.1205 5.085v56.285c0 2.08 1.3869 4.05 3.1205 5.09l48.888 28.08c1.157 0.69 2.428 0.93 3.815 0.69l-52.356-95.345-0.3465 0.115z" fill="none"/>
     <path fill-rule="evenodd" d="m50.391 0.80903l-0.693 0.34677h0.924l-0.231-0.34677z" fill="url(#linearGradient-5)"/>
     <path fill-rule="evenodd" d="m106.79 105.64c1.39-0.81 2.43-2.2 2.89-3.7l-53.626-91.538c-1.387-0.231-2.889-0.116-4.161 0.693l-48.541 27.97 52.355 95.465c0.694-0.12 1.503-0.35 2.196-0.69l48.887-28.2z" fill="url(#linearGradient-6)"/>
     <path fill-rule="evenodd" d="m111.3 104.71l-0.35-0.58v0.81l0.35-0.23z" fill="url(#linearGradient-7)"/>
     <path fill-rule="evenodd" d="m106.79 105.64l-48.771 28.08c-0.693 0.35-1.387 0.58-2.196 0.69l0.925 1.74 54.092-31.32v-0.7l-1.39-2.31c-0.23 1.62-1.27 3.01-2.66 3.82z" fill="url(#linearGradient-8)"/>
     <path fill-rule="evenodd" d="m106.79 105.64l-48.771 28.08c-0.693 0.35-1.387 0.58-2.196 0.69l0.925 1.74 54.092-31.32v-0.7l-1.39-2.31c-0.23 1.62-1.27 3.01-2.66 3.82z" fill="url(#linearGradient-9)"/>
    </g>
   </g>
  </g>
 </g>
</svg>
