<?xml version="1.0" encoding="UTF-8" standalone="no"?>
<svg xmlns="http://www.w3.org/2000/svg" height="192px" width="256px" version="1.1" preserveAspectRatio="xMidYMid" xmlns:xlink="http://www.w3.org/1999/xlink" viewBox="0 0 256 192">
 <g fill="#CD6799">
  <path d="m220.28 110.51c-8.91 0.05-16.65 2.2-23.13 5.37-2.38-4.71-4.75-8.91-5.17-11.99-0.47-3.59-1.03-5.78-0.47-10.07s3.08-10.399 3.03-10.865-0.56-2.658-5.69-2.704c-5.13-0.047-9.56 0.979-10.07 2.331s-1.49 4.43-2.14 7.601c-0.89 4.663-10.26 21.307-15.63 30.027-1.72-3.4-3.21-6.39-3.54-8.76-0.47-3.59-1.03-5.79-0.47-10.08 0.56-4.286 3.08-10.394 3.03-10.861-0.04-0.466-0.55-2.658-5.68-2.704-5.13-0.047-9.56 0.979-10.08 2.331-0.51 1.353-1.07 4.523-2.14 7.601-1.07 3.073-13.52 30.873-16.79 38.053-1.68 3.68-3.12 6.62-4.15 8.62 0 0-0.04 0.14-0.18 0.38-0.89 1.72-1.4 2.65-1.4 2.65v0.05c-0.7 1.26-1.45 2.43-1.82 2.43-0.28 0-0.79-3.36 0.09-7.93 1.87-9.65 6.3-24.67 6.25-25.18 0-0.28 0.84-2.89-2.89-4.24-3.64-1.36-4.94 0.88-5.27 0.88s-0.56 0.79-0.56 0.79 4.06-16.876-7.74-16.876c-7.37 0-17.534 8.066-22.57 15.346-3.171 1.72-9.932 5.4-17.16 9.37-2.751 1.54-5.595 3.08-8.253 4.52-0.187-0.19-0.373-0.42-0.56-0.61-14.269-15.24-40.661-26.015-39.542-46.485 0.419-7.461 2.984-27.046 50.687-50.827 39.258-19.352 70.508-13.989 75.918-2.099 7.74 16.974-16.74 48.496-57.313 53.065-15.481 1.726-23.595-4.243-25.646-6.481-2.145-2.332-2.472-2.472-3.265-2.005-1.305 0.699-0.466 2.798 0 4.01 1.213 3.171 6.202 8.766 14.642 11.518 7.461 2.424 25.602 3.777 47.562-4.71 24.58-9.513 43.79-35.952 38.14-58.101-5.64-22.476-42.94-29.89-78.241-17.347-20.983 7.461-43.739 19.212-60.106 34.507-19.445 18.185-22.523 33.993-21.264 40.615 4.5236 23.5 36.932 38.8 49.895 50.13-0.653 0.37-1.259 0.7-1.772 0.98-6.482 3.21-31.196 16.13-37.351 29.79-6.9945 15.48 1.119 26.58 6.482 28.07 16.647 4.62 33.76-3.68 42.946-17.39s8.067-31.52 3.824-39.68c-0.047-0.09-0.093-0.19-0.187-0.28 1.679-0.98 3.404-2.01 5.083-2.99 3.311-1.95 6.575-3.77 9.373-5.26-1.586 4.33-2.752 9.51-3.311 16.97-0.7 8.77 2.891 20.14 7.601 24.62 2.098 1.96 4.569 2 6.155 2 5.502 0 7.974-4.56 10.723-9.97 3.36-6.63 6.39-14.32 6.39-14.32s-3.78 20.8 6.48 20.8c3.73 0 7.51-4.85 9.19-7.32v0.04s0.09-0.14 0.28-0.46c0.37-0.61 0.6-0.98 0.6-0.98v-0.1c1.5-2.61 4.85-8.53 9.84-18.37 6.44-12.68 12.64-28.54 12.64-28.54s0.56 3.87 2.47 10.31c1.12 3.78 3.45 7.93 5.32 11.94-1.5 2.1-2.43 3.26-2.43 3.26l0.05 0.05c-1.21 1.58-2.52 3.31-3.96 4.99-5.09 6.06-11.15 13.01-11.99 15.01-0.98 2.38-0.74 4.11 1.12 5.5 1.35 1.03 3.78 1.17 6.25 1.03 4.57-0.33 7.79-1.45 9.37-2.14 2.47-0.89 5.36-2.24 8.07-4.25 4.99-3.68 8.02-8.95 7.74-15.9-0.14-3.82-1.4-7.65-2.94-11.24 0.47-0.65 0.89-1.3 1.35-1.96 7.88-11.51 13.99-24.15 13.99-24.15s0.56 3.87 2.47 10.31c0.94 3.26 2.85 6.8 4.53 10.25-7.42 6.02-11.99 13.01-13.62 17.58-2.94 8.49-0.65 12.31 3.69 13.2 1.95 0.42 4.75-0.51 6.8-1.4 2.61-0.84 5.69-2.28 8.63-4.43 4.99-3.68 9.79-8.81 9.51-15.76-0.14-3.17-0.98-6.29-2.14-9.33 6.29-2.61 14.41-4.05 24.76-2.84 22.19 2.61 26.58 16.46 25.74 22.29s-5.5 9-7.04 9.98-2.06 1.3-1.92 2c0.19 1.03 0.94 0.98 2.24 0.8 1.82-0.33 11.66-4.71 12.08-15.44 0.7-13.71-12.36-28.68-35.44-28.54zm-171.22 57.73c-7.368 8.02-17.626 11.05-22.056 8.49-4.756-2.75-2.891-14.6 6.155-23.08 5.502-5.18 12.59-9.98 17.3-12.92 1.072-0.65 2.658-1.59 4.57-2.75 0.326-0.19 0.513-0.28 0.513-0.28 0.373-0.23 0.746-0.47 1.119-0.7 3.31 12.12 0.14 22.8-7.601 31.24zm53.625-36.46c-2.56 6.25-7.927 22.24-11.191 21.35-2.798-0.74-4.524-12.87-0.56-24.85 2.005-6.02 6.248-13.2 8.72-15.99 4.011-4.48 8.441-5.97 9.511-4.15 1.35 2.37-4.89 19.72-6.48 23.64zm44.25 21.17c-1.07 0.56-2.1 0.93-2.56 0.65-0.33-0.19 0.46-0.93 0.46-0.93s5.55-5.97 7.74-8.68c1.26-1.58 2.76-3.45 4.34-5.54v0.6c0 7.14-6.9 11.94-9.98 13.9zm34.14-7.79c-0.8-0.56-0.66-2.42 2-8.25 1.03-2.29 3.45-6.11 7.6-9.8 0.47 1.5 0.79 2.94 0.75 4.29-0.05 9-6.48 12.36-10.35 13.76z"/>
 </g>
</svg>
